# Blender v2.92.0 OBJ File: ''
# www.blender.org
mtllib Avatar.mtl
o Circle
v -0.000000 0.000000 -1.000000
v -0.126418 0.000000 -0.980785
v -0.247978 0.000000 -0.923880
v -0.360007 0.000000 -0.831470
v -0.458203 0.000000 -0.707107
v -0.538789 0.000000 -0.555570
v -0.598671 0.000000 -0.382683
v -0.635545 0.000000 -0.195090
v -0.647996 0.000000 -0.000000
v -0.635545 0.000000 0.195090
v -0.598671 0.000000 0.382683
v -0.538789 0.000000 0.555570
v -0.458203 0.000000 0.707107
v -0.360007 0.000000 0.831470
v -0.247977 0.000000 0.923880
v -0.126418 0.000000 0.980785
v 0.000000 0.000000 1.000000
v 0.126418 0.000000 0.980785
v 0.247978 0.000000 0.923879
v 0.360008 0.000000 0.831469
v 0.458203 0.000000 0.707106
v 0.538790 0.000000 0.555570
v 0.598671 0.000000 0.382683
v 0.635545 0.000000 0.195089
v 0.647996 0.000000 -0.000001
v 0.635545 0.000000 -0.195091
v 0.598670 0.000000 -0.382684
v 0.538789 0.000000 -0.555571
v 0.458202 0.000000 -0.707108
v 0.360007 0.000000 -0.831470
v 0.247977 0.000000 -0.923880
v 0.126417 0.000000 -0.980786
v -0.000000 1.791986 -0.486133
v -0.061456 1.791986 -0.476792
v -0.120550 1.791986 -0.449128
v -0.175012 1.791986 -0.404205
v -0.222747 1.791986 -0.343748
v -0.261923 1.791986 -0.270081
v -0.291034 1.791986 -0.186035
v -0.308960 1.791986 -0.094840
v -0.315012 1.791986 -0.000000
v -0.308960 1.791986 0.094840
v -0.291034 1.791986 0.186035
v -0.261923 1.791986 0.270081
v -0.222747 1.791986 0.343748
v -0.175012 1.791986 0.404205
v -0.120550 1.791986 0.449128
v -0.061456 1.791986 0.476792
v 0.000000 1.791986 0.486133
v 0.061456 1.791986 0.476792
v 0.120550 1.791986 0.449128
v 0.175012 1.791986 0.404204
v 0.222747 1.791986 0.343747
v 0.261923 1.791986 0.270081
v 0.291034 1.791986 0.186035
v 0.308959 1.791986 0.094839
v 0.315012 1.791986 -0.000001
v 0.308959 1.791986 -0.094840
v 0.291033 1.791986 -0.186036
v 0.261923 1.791986 -0.270082
v 0.222747 1.791986 -0.343748
v 0.175011 1.791986 -0.404205
v 0.120549 1.791986 -0.449129
v 0.061455 1.791986 -0.476792
v -0.517542 0.358397 -0.533661
v -0.489933 0.716794 -0.505192
v -0.430431 1.075192 -0.443837
v -0.361891 1.433589 -0.373163
v -0.307763 1.433589 -0.474946
v -0.366052 1.075191 -0.564898
v -0.416654 0.716794 -0.642988
v -0.440133 0.358397 -0.679222
v -0.000000 0.358397 -0.960564
v -0.000000 0.716794 -0.909322
v -0.000000 1.075192 -0.798886
v -0.000000 1.433589 -0.671675
v 0.084911 1.433589 -0.658769
v 0.100993 1.075191 -0.783536
v 0.114954 0.716794 -0.891850
v 0.121431 0.358397 -0.942108
v 0.345811 0.358397 0.798680
v 0.327363 0.716794 0.756073
v 0.287605 1.075192 0.664249
v 0.241808 1.433589 0.558477
v 0.166560 1.433589 0.620547
v 0.198106 1.075191 0.738074
v 0.225492 0.716794 0.840104
v 0.238199 0.358397 0.887445
v -0.575062 0.358397 -0.367592
v -0.544384 0.716794 -0.347982
v -0.478270 1.075192 -0.305721
v -0.402112 1.433589 -0.257039
v 0.440133 0.358397 0.679221
v 0.416654 0.716794 0.642987
v 0.366052 1.075192 0.564897
v 0.307763 1.433589 0.474946
v -0.610482 0.358397 -0.187397
v -0.577915 0.716794 -0.177400
v -0.507728 1.075192 -0.155855
v -0.426880 1.433589 -0.131037
v 0.517542 0.358397 0.533660
v 0.489933 0.716794 0.505192
v 0.430432 1.075192 0.443837
v 0.361892 1.433589 0.373162
v -0.622442 0.358397 -0.000000
v -0.589237 0.716794 -0.000000
v -0.517675 1.075192 -0.000000
v -0.435243 1.433589 -0.000000
v 0.575062 0.358397 0.367591
v 0.544384 0.716794 0.347982
v 0.478270 1.075192 0.305720
v 0.402112 1.433589 0.257038
v -0.610482 0.358397 0.187397
v -0.577915 0.716794 0.177400
v -0.507728 1.075192 0.155855
v -0.426880 1.433589 0.131037
v 0.610482 0.358397 0.187396
v 0.577915 0.716794 0.177399
v 0.507728 1.075192 0.155854
v 0.426880 1.433589 0.131037
v -0.575062 0.358397 0.367592
v -0.544384 0.716794 0.347982
v -0.478270 1.075192 0.305720
v -0.402112 1.433589 0.257039
v 0.622442 0.358397 -0.000001
v 0.589237 0.716794 -0.000001
v 0.517675 1.075192 -0.000001
v 0.435243 1.433589 -0.000001
v -0.517542 0.358397 0.533661
v -0.489933 0.716794 0.505192
v -0.430431 1.075192 0.443837
v -0.361891 1.433589 0.373163
v 0.610482 0.358397 -0.187398
v 0.577915 0.716794 -0.177401
v 0.507728 1.075192 -0.155856
v 0.426880 1.433589 -0.131038
v -0.440133 0.358397 0.679221
v -0.416654 0.716794 0.642987
v -0.366052 1.075192 0.564898
v -0.307763 1.433589 0.474946
v 0.575061 0.358397 -0.367593
v 0.544384 0.716794 -0.347983
v 0.478269 1.075192 -0.305721
v 0.402112 1.433589 -0.257040
v -0.345810 0.358397 0.798680
v -0.327363 0.716794 0.756073
v -0.287605 1.075192 0.664250
v -0.241808 1.433589 0.558477
v 0.517541 0.358397 -0.533662
v 0.489932 0.716794 -0.505193
v 0.430431 1.075192 -0.443838
v 0.361891 1.433589 -0.373164
v -0.238198 0.358397 0.887446
v -0.225491 0.716794 0.840104
v -0.198106 1.075192 0.738075
v -0.166560 1.433589 0.620547
v -0.121432 0.358397 -0.942107
v -0.114955 0.716794 -0.891849
v -0.100993 1.075192 -0.783536
v -0.084912 1.433589 -0.658769
v 0.440133 0.358397 -0.679222
v 0.416653 0.716794 -0.642988
v 0.366051 1.075192 -0.564899
v 0.307763 1.433589 -0.474947
v -0.121432 0.358397 0.942107
v -0.114954 0.716794 0.891849
v -0.100993 1.075192 0.783536
v -0.084912 1.433589 0.658769
v -0.238198 0.358397 -0.887446
v -0.225491 0.716794 -0.840104
v -0.198106 1.075192 -0.738075
v -0.166560 1.433589 -0.620547
v 0.345810 0.358397 -0.798681
v 0.327362 0.716794 -0.756074
v 0.287604 1.075192 -0.664250
v 0.241808 1.433589 -0.558478
v 0.000000 0.358397 0.960564
v 0.000000 0.716794 0.909322
v 0.000000 1.075192 0.798886
v 0.000000 1.433589 0.671675
v -0.345810 0.358397 -0.798680
v -0.327363 0.716794 -0.756073
v -0.287605 1.075192 -0.664250
v -0.241808 1.433589 -0.558478
v 0.238197 0.358397 -0.887446
v 0.225490 0.716794 -0.840104
v 0.198105 1.075192 -0.738075
v 0.166560 1.433589 -0.620547
v 0.121433 0.358397 0.942107
v 0.114955 0.716794 0.891849
v 0.100994 1.075192 0.783536
v 0.084912 1.433589 0.658769
vt 0.000000 0.000000
vt 0.000000 0.000000
vt 0.000000 0.000000
vt 0.000000 0.000000
vt 0.000000 0.000000
vt 0.000000 0.000000
vt 0.000000 0.000000
vt 0.000000 0.000000
vt 0.000000 0.000000
vt 0.000000 0.000000
vt 0.000000 0.000000
vt 0.000000 0.000000
vt 0.000000 0.000000
vt 0.000000 0.000000
vt 0.000000 0.000000
vt 0.000000 0.000000
vt 0.000000 0.000000
vt 0.000000 0.000000
vt 0.000000 0.000000
vt 0.000000 0.000000
vt 0.000000 0.000000
vt 0.000000 0.000000
vt 0.000000 0.000000
vt 0.000000 0.000000
vt 0.000000 0.000000
vt 0.000000 0.000000
vt 0.000000 0.000000
vt 0.000000 0.000000
vt 0.000000 0.000000
vt 0.000000 0.000000
vt 0.000000 0.000000
vt 0.000000 0.000000
vt 0.000000 0.000000
vt 0.000000 0.000000
vt 0.000000 0.000000
vt 0.000000 0.000000
vt 0.000000 0.000000
vt 0.000000 0.000000
vt 0.000000 0.000000
vt 0.000000 0.000000
vt 0.000000 0.000000
vt 0.000000 0.000000
vt 0.000000 0.000000
vt 0.000000 0.000000
vt 0.000000 0.000000
vt 0.000000 0.000000
vt 0.000000 0.000000
vt 0.000000 0.000000
vt 0.000000 0.000000
vt 0.000000 0.000000
vt 0.000000 0.000000
vt 0.000000 0.000000
vt 0.000000 0.000000
vt 0.000000 0.000000
vt 0.000000 0.000000
vt 0.000000 0.000000
vt 0.000000 0.000000
vt 0.000000 0.000000
vt 0.000000 0.000000
vt 0.000000 0.000000
vt 0.000000 0.000000
vt 0.000000 0.000000
vt 0.000000 0.000000
vt 0.000000 0.000000
vt 0.000000 0.000000
vt 0.000000 0.000000
vt 0.000000 0.000000
vt 0.000000 0.000000
vt 0.000000 0.000000
vt 0.000000 0.000000
vt 0.000000 0.000000
vt 0.000000 0.000000
vt 0.000000 0.000000
vt 0.000000 0.000000
vt 0.000000 0.000000
vt 0.000000 0.000000
vt 0.000000 0.000000
vt 0.000000 0.000000
vt 0.000000 0.000000
vt 0.000000 0.000000
vt 0.000000 0.000000
vt 0.000000 0.000000
vt 0.000000 0.000000
vt 0.000000 0.000000
vt 0.000000 0.000000
vt 0.000000 0.000000
vt 0.000000 0.000000
vt 0.000000 0.000000
vt 0.000000 0.000000
vt 0.000000 0.000000
vt 0.000000 0.000000
vt 0.000000 0.000000
vt 0.000000 0.000000
vt 0.000000 0.000000
vt 0.000000 0.000000
vt 0.000000 0.000000
vt 0.000000 0.000000
vt 0.000000 0.000000
vt 0.000000 0.000000
vt 0.000000 0.000000
vt 0.000000 0.000000
vt 0.000000 0.000000
vt 0.000000 0.000000
vt 0.000000 0.000000
vt 0.000000 0.000000
vt 0.000000 0.000000
vt 0.000000 0.000000
vt 0.000000 0.000000
vt 0.000000 0.000000
vt 0.000000 0.000000
vt 0.000000 0.000000
vt 0.000000 0.000000
vt 0.000000 0.000000
vt 0.000000 0.000000
vt 0.000000 0.000000
vt 0.000000 0.000000
vt 0.000000 0.000000
vt 0.000000 0.000000
vt 0.000000 0.000000
vt 0.000000 0.000000
vt 0.000000 0.000000
vt 0.000000 0.000000
vt 0.000000 0.000000
vt 0.000000 0.000000
vt 0.000000 0.000000
vt 0.000000 0.000000
vt 0.000000 0.000000
vt 0.000000 0.000000
vt 0.000000 0.000000
vt 0.000000 0.000000
vt 0.000000 0.000000
vt 0.000000 0.000000
vt 0.000000 0.000000
vt 0.000000 0.000000
vt 0.000000 0.000000
vt 0.000000 0.000000
vt 0.000000 0.000000
vt 0.000000 0.000000
vt 0.000000 0.000000
vt 0.000000 0.000000
vt 0.000000 0.000000
vt 0.000000 0.000000
vt 0.000000 0.000000
vt 0.000000 0.000000
vt 0.000000 0.000000
vt 0.000000 0.000000
vt 0.000000 0.000000
vt 0.000000 0.000000
vt 0.000000 0.000000
vt 0.000000 0.000000
vt 0.000000 0.000000
vt 0.000000 0.000000
vt 0.000000 0.000000
vt 0.000000 0.000000
vt 0.000000 0.000000
vt 0.000000 0.000000
vt 0.000000 0.000000
vt 0.000000 0.000000
vt 0.000000 0.000000
vt 0.000000 0.000000
vt 0.000000 0.000000
vt 0.000000 0.000000
vt 0.000000 0.000000
vt 0.000000 0.000000
vt 0.000000 0.000000
vt 0.000000 0.000000
vt 0.000000 0.000000
vt 0.000000 0.000000
vt 0.000000 0.000000
vt 0.000000 0.000000
vt 0.000000 0.000000
vt 0.000000 0.000000
vt 0.000000 0.000000
vt 0.000000 0.000000
vt 0.000000 0.000000
vt 0.000000 0.000000
vt 0.000000 0.000000
vt 0.000000 0.000000
vt 0.000000 0.000000
vt 0.000000 0.000000
vt 0.000000 0.000000
vt 0.000000 0.000000
vt 0.000000 0.000000
vt 0.000000 0.000000
vt 0.000000 0.000000
vt 0.000000 0.000000
vt 0.000000 0.000000
vt 0.000000 0.000000
vt 0.000000 0.000000
vt 0.000000 0.000000
vt 0.000000 0.000000
vt 0.000000 0.000000
vn 0.0000 -1.0000 0.0000
vn 0.0000 1.0000 0.0000
vn -0.8250 0.3563 -0.4387
vn 0.1338 0.4556 -0.8801
vn 0.5801 0.4109 0.7033
vn -0.8897 0.3368 -0.3082
vn 0.7254 0.3817 0.5728
vn -0.9283 0.3239 -0.1825
vn 0.8250 0.3563 0.4387
vn -0.9463 0.3175 -0.0604
vn 0.8897 0.3368 0.3082
vn -0.9463 0.3175 0.0604
vn 0.9283 0.3239 0.1825
vn -0.9283 0.3239 0.1825
vn 0.9463 0.3175 0.0604
vn -0.8897 0.3368 0.3082
vn 0.9463 0.3175 -0.0604
vn -0.8250 0.3563 0.4387
vn 0.9283 0.3239 -0.1825
vn -0.7254 0.3817 0.5728
vn 0.8897 0.3368 -0.3082
vn -0.5801 0.4109 0.7033
vn -0.1338 0.4556 -0.8801
vn 0.8250 0.3563 -0.4387
vn -0.3811 0.4383 0.8141
vn -0.3811 0.4383 -0.8141
vn 0.7254 0.3817 -0.5728
vn -0.1338 0.4556 0.8801
vn -0.5801 0.4109 -0.7033
vn 0.5801 0.4109 -0.7033
vn 0.1338 0.4556 0.8801
vn -0.7254 0.3817 -0.5728
vn 0.3811 0.4383 -0.8141
vn 0.3811 0.4383 0.8141
vn 0.4217 0.1031 0.9008
vn 0.4202 0.1335 0.8976
vn 0.4072 0.2787 0.8698
vn 0.4021 0.3171 0.8589
vn 0.4217 0.1031 -0.9009
vn 0.4202 0.1335 -0.8976
vn 0.4072 0.2787 -0.8698
vn 0.4021 0.3171 -0.8589
vn -0.7818 0.0874 -0.6173
vn -0.7798 0.1133 -0.6157
vn -0.7621 0.2387 -0.6018
vn -0.7551 0.2725 -0.5963
vn 0.1494 0.1081 0.9828
vn 0.1488 0.1400 0.9789
vn 0.1437 0.2914 0.9457
vn 0.1418 0.3311 0.9329
vn 0.6334 0.0953 -0.7679
vn 0.6314 0.1235 -0.7655
vn 0.6146 0.2591 -0.7451
vn 0.6080 0.2952 -0.7370
vn -0.6334 0.0953 -0.7679
vn -0.6314 0.1235 -0.7655
vn -0.6146 0.2591 -0.7451
vn -0.6080 0.2952 -0.7370
vn -0.1494 0.1081 0.9828
vn -0.1488 0.1400 0.9789
vn -0.1437 0.2914 0.9457
vn -0.1418 0.3311 0.9329
vn 0.7818 0.0874 -0.6173
vn 0.7798 0.1133 -0.6157
vn 0.7621 0.2387 -0.6018
vn 0.7551 0.2725 -0.5963
vn -0.4217 0.1031 -0.9008
vn -0.4202 0.1335 -0.8976
vn -0.4072 0.2787 -0.8698
vn -0.4021 0.3171 -0.8589
vn -0.4217 0.1031 0.9008
vn -0.4202 0.1335 0.8976
vn -0.4072 0.2787 0.8698
vn -0.4021 0.3171 0.8589
vn 0.8800 0.0808 -0.4680
vn 0.8781 0.1047 -0.4670
vn 0.8610 0.2213 -0.4579
vn 0.8542 0.2529 -0.4543
vn -0.1494 0.1081 -0.9828
vn -0.1488 0.1400 -0.9789
vn -0.1437 0.2914 -0.9457
vn -0.1418 0.3311 -0.9329
vn -0.6334 0.0953 0.7679
vn -0.6315 0.1235 0.7655
vn -0.6146 0.2591 0.7451
vn -0.6080 0.2952 0.7370
vn 0.9422 0.0758 -0.3263
vn 0.9403 0.0983 -0.3257
vn 0.9242 0.2082 -0.3201
vn 0.9177 0.2382 -0.3179
vn -0.7818 0.0874 0.6173
vn -0.7798 0.1133 0.6157
vn -0.7621 0.2387 0.6018
vn -0.7551 0.2725 0.5963
vn 0.9786 0.0726 -0.1924
vn 0.9769 0.0941 -0.1920
vn 0.9615 0.1997 -0.1890
vn 0.9553 0.2285 -0.1878
vn -0.8800 0.0808 0.4680
vn -0.8781 0.1047 0.4669
vn -0.8610 0.2213 0.4579
vn -0.8542 0.2529 0.4543
vn 0.9955 0.0710 -0.0635
vn 0.9937 0.0921 -0.0634
vn 0.9787 0.1954 -0.0625
vn 0.9727 0.2237 -0.0621
vn -0.9422 0.0758 0.3263
vn -0.9403 0.0983 0.3257
vn -0.9242 0.2082 0.3201
vn -0.9177 0.2382 0.3179
vn 0.9955 0.0710 0.0635
vn 0.9937 0.0921 0.0634
vn 0.9787 0.1954 0.0625
vn 0.9727 0.2237 0.0621
vn -0.9786 0.0726 0.1924
vn -0.9769 0.0941 0.1920
vn -0.9615 0.1997 0.1890
vn -0.9553 0.2285 0.1878
vn 0.9786 0.0726 0.1924
vn 0.9769 0.0941 0.1920
vn 0.9615 0.1997 0.1890
vn 0.9553 0.2285 0.1878
vn -0.9955 0.0710 0.0635
vn -0.9937 0.0921 0.0634
vn -0.9787 0.1954 0.0625
vn -0.9727 0.2237 0.0621
vn 0.9422 0.0758 0.3263
vn 0.9403 0.0983 0.3257
vn 0.9242 0.2082 0.3201
vn 0.9177 0.2382 0.3179
vn -0.9955 0.0710 -0.0635
vn -0.9937 0.0921 -0.0634
vn -0.9787 0.1954 -0.0625
vn -0.9727 0.2237 -0.0621
vn 0.8800 0.0808 0.4680
vn 0.8781 0.1047 0.4669
vn 0.8610 0.2213 0.4579
vn 0.8542 0.2529 0.4543
vn -0.9786 0.0726 -0.1924
vn -0.9769 0.0941 -0.1920
vn -0.9615 0.1997 -0.1890
vn -0.9553 0.2285 -0.1878
vn 0.7818 0.0874 0.6173
vn 0.7798 0.1133 0.6157
vn 0.7621 0.2387 0.6018
vn 0.7551 0.2725 0.5963
vn -0.9422 0.0758 -0.3263
vn -0.9403 0.0983 -0.3257
vn -0.9242 0.2082 -0.3201
vn -0.9177 0.2382 -0.3179
vn 0.6334 0.0953 0.7679
vn 0.6315 0.1235 0.7655
vn 0.6146 0.2591 0.7451
vn 0.6080 0.2952 0.7370
vn 0.1494 0.1081 -0.9828
vn 0.1488 0.1400 -0.9789
vn 0.1437 0.2914 -0.9457
vn 0.1418 0.3311 -0.9329
vn -0.8800 0.0808 -0.4680
vn -0.8781 0.1047 -0.4669
vn -0.8610 0.2213 -0.4579
vn -0.8542 0.2529 -0.4543
usemtl None
s off
f 2/1/1 1/2/1 32/3/1 31/4/1 30/5/1 29/6/1 28/7/1 27/8/1 26/9/1 25/10/1 24/11/1 23/12/1 22/13/1 21/14/1 20/15/1 19/16/1 18/17/1 17/18/1 16/19/1 15/20/1 14/21/1 13/22/1 12/23/1 11/24/1 10/25/1 9/26/1 8/27/1 7/28/1 6/29/1 5/30/1 4/31/1 3/32/1
f 34/33/2 35/34/2 36/35/2 37/36/2 38/37/2 39/38/2 40/39/2 41/40/2 42/41/2 43/42/2 44/43/2 45/44/2 46/45/2 47/46/2 48/47/2 49/48/2 50/49/2 51/50/2 52/51/2 53/52/2 54/53/2 55/54/2 56/55/2 57/56/2 58/57/2 59/58/2 60/59/2 61/60/2 62/61/2 63/62/2 64/63/2 33/64/2
f 69/65/3 68/66/3 38/37/3 37/36/3
f 77/67/4 76/68/4 33/64/4 64/63/4
f 85/69/5 84/70/5 52/51/5 51/50/5
f 68/66/6 92/71/6 39/38/6 38/37/6
f 84/70/7 96/72/7 53/52/7 52/51/7
f 92/71/8 100/73/8 40/39/8 39/38/8
f 96/72/9 104/74/9 54/53/9 53/52/9
f 100/73/10 108/75/10 41/40/10 40/39/10
f 104/74/11 112/76/11 55/54/11 54/53/11
f 108/75/12 116/77/12 42/41/12 41/40/12
f 112/76/13 120/78/13 56/55/13 55/54/13
f 116/77/14 124/79/14 43/42/14 42/41/14
f 120/78/15 128/80/15 57/56/15 56/55/15
f 124/79/16 132/81/16 44/43/16 43/42/16
f 128/80/17 136/82/17 58/57/17 57/56/17
f 132/81/18 140/83/18 45/44/18 44/43/18
f 136/82/19 144/84/19 59/58/19 58/57/19
f 140/83/20 148/85/20 46/45/20 45/44/20
f 144/84/21 152/86/21 60/59/21 59/58/21
f 148/85/22 156/87/22 47/46/22 46/45/22
f 76/68/23 160/88/23 34/33/23 33/64/23
f 152/86/24 164/89/24 61/60/24 60/59/24
f 156/87/25 168/90/25 48/47/25 47/46/25
f 160/88/26 172/91/26 35/34/26 34/33/26
f 164/89/27 176/92/27 62/61/27 61/60/27
f 168/90/28 180/93/28 49/48/28 48/47/28
f 172/91/29 184/94/29 36/35/29 35/34/29
f 176/92/30 188/95/30 63/62/30 62/61/30
f 180/93/31 192/96/31 50/49/31 49/48/31
f 184/94/32 69/65/32 37/36/32 36/35/32
f 188/95/33 77/67/33 64/63/33 63/62/33
f 192/96/34 85/69/34 51/50/34 50/49/34
f 18/17/35 19/16/35 88/97/35 189/98/35
f 189/98/36 88/97/36 87/99/36 190/100/36
f 190/100/37 87/99/37 86/101/37 191/102/37
f 191/102/38 86/101/38 85/69/38 192/96/38
f 31/4/39 32/3/39 80/103/39 185/104/39
f 185/104/40 80/103/40 79/105/40 186/106/40
f 186/106/41 79/105/41 78/107/41 187/108/41
f 187/108/42 78/107/42 77/67/42 188/95/42
f 4/31/43 5/30/43 72/109/43 181/110/43
f 181/110/44 72/109/44 71/111/44 182/112/44
f 182/112/45 71/111/45 70/113/45 183/114/45
f 183/114/46 70/113/46 69/65/46 184/94/46
f 17/18/47 18/17/47 189/98/47 177/115/47
f 177/115/48 189/98/48 190/100/48 178/116/48
f 178/116/49 190/100/49 191/102/49 179/117/49
f 179/117/50 191/102/50 192/96/50 180/93/50
f 30/5/51 31/4/51 185/104/51 173/118/51
f 173/118/52 185/104/52 186/106/52 174/119/52
f 174/119/53 186/106/53 187/108/53 175/120/53
f 175/120/54 187/108/54 188/95/54 176/92/54
f 3/32/55 4/31/55 181/110/55 169/121/55
f 169/121/56 181/110/56 182/112/56 170/122/56
f 170/122/57 182/112/57 183/114/57 171/123/57
f 171/123/58 183/114/58 184/94/58 172/91/58
f 16/19/59 17/18/59 177/115/59 165/124/59
f 165/124/60 177/115/60 178/116/60 166/125/60
f 166/125/61 178/116/61 179/117/61 167/126/61
f 167/126/62 179/117/62 180/93/62 168/90/62
f 29/6/63 30/5/63 173/118/63 161/127/63
f 161/127/64 173/118/64 174/119/64 162/128/64
f 162/128/65 174/119/65 175/120/65 163/129/65
f 163/129/66 175/120/66 176/92/66 164/89/66
f 2/1/67 3/32/67 169/121/67 157/130/67
f 157/130/68 169/121/68 170/122/68 158/131/68
f 158/131/69 170/122/69 171/123/69 159/132/69
f 159/132/70 171/123/70 172/91/70 160/88/70
f 15/20/71 16/19/71 165/124/71 153/133/71
f 153/133/72 165/124/72 166/125/72 154/134/72
f 154/134/73 166/125/73 167/126/73 155/135/73
f 155/135/74 167/126/74 168/90/74 156/87/74
f 28/7/75 29/6/75 161/127/75 149/136/75
f 149/136/76 161/127/76 162/128/76 150/137/76
f 150/137/77 162/128/77 163/129/77 151/138/77
f 151/138/78 163/129/78 164/89/78 152/86/78
f 1/2/79 2/1/79 157/130/79 73/139/79
f 73/139/80 157/130/80 158/131/80 74/140/80
f 74/140/81 158/131/81 159/132/81 75/141/81
f 75/141/82 159/132/82 160/88/82 76/68/82
f 14/21/83 15/20/83 153/133/83 145/142/83
f 145/142/84 153/133/84 154/134/84 146/143/84
f 146/143/85 154/134/85 155/135/85 147/144/85
f 147/144/86 155/135/86 156/87/86 148/85/86
f 27/8/87 28/7/87 149/136/87 141/145/87
f 141/145/88 149/136/88 150/137/88 142/146/88
f 142/146/89 150/137/89 151/138/89 143/147/89
f 143/147/90 151/138/90 152/86/90 144/84/90
f 13/22/91 14/21/91 145/142/91 137/148/91
f 137/148/92 145/142/92 146/143/92 138/149/92
f 138/149/93 146/143/93 147/144/93 139/150/93
f 139/150/94 147/144/94 148/85/94 140/83/94
f 26/9/95 27/8/95 141/145/95 133/151/95
f 133/151/96 141/145/96 142/146/96 134/152/96
f 134/152/97 142/146/97 143/147/97 135/153/97
f 135/153/98 143/147/98 144/84/98 136/82/98
f 12/23/99 13/22/99 137/148/99 129/154/99
f 129/154/100 137/148/100 138/149/100 130/155/100
f 130/155/101 138/149/101 139/150/101 131/156/101
f 131/156/102 139/150/102 140/83/102 132/81/102
f 25/10/103 26/9/103 133/151/103 125/157/103
f 125/157/104 133/151/104 134/152/104 126/158/104
f 126/158/105 134/152/105 135/153/105 127/159/105
f 127/159/106 135/153/106 136/82/106 128/80/106
f 11/24/107 12/23/107 129/154/107 121/160/107
f 121/160/108 129/154/108 130/155/108 122/161/108
f 122/161/109 130/155/109 131/156/109 123/162/109
f 123/162/110 131/156/110 132/81/110 124/79/110
f 24/11/111 25/10/111 125/157/111 117/163/111
f 117/163/112 125/157/112 126/158/112 118/164/112
f 118/164/113 126/158/113 127/159/113 119/165/113
f 119/165/114 127/159/114 128/80/114 120/78/114
f 10/25/115 11/24/115 121/160/115 113/166/115
f 113/166/116 121/160/116 122/161/116 114/167/116
f 114/167/117 122/161/117 123/162/117 115/168/117
f 115/168/118 123/162/118 124/79/118 116/77/118
f 23/12/119 24/11/119 117/163/119 109/169/119
f 109/169/120 117/163/120 118/164/120 110/170/120
f 110/170/121 118/164/121 119/165/121 111/171/121
f 111/171/122 119/165/122 120/78/122 112/76/122
f 9/26/123 10/25/123 113/166/123 105/172/123
f 105/172/124 113/166/124 114/167/124 106/173/124
f 106/173/125 114/167/125 115/168/125 107/174/125
f 107/174/126 115/168/126 116/77/126 108/75/126
f 22/13/127 23/12/127 109/169/127 101/175/127
f 101/175/128 109/169/128 110/170/128 102/176/128
f 102/176/129 110/170/129 111/171/129 103/177/129
f 103/177/130 111/171/130 112/76/130 104/74/130
f 8/27/131 9/26/131 105/172/131 97/178/131
f 97/178/132 105/172/132 106/173/132 98/179/132
f 98/179/133 106/173/133 107/174/133 99/180/133
f 99/180/134 107/174/134 108/75/134 100/73/134
f 21/14/135 22/13/135 101/175/135 93/181/135
f 93/181/136 101/175/136 102/176/136 94/182/136
f 94/182/137 102/176/137 103/177/137 95/183/137
f 95/183/138 103/177/138 104/74/138 96/72/138
f 7/28/139 8/27/139 97/178/139 89/184/139
f 89/184/140 97/178/140 98/179/140 90/185/140
f 90/185/141 98/179/141 99/180/141 91/186/141
f 91/186/142 99/180/142 100/73/142 92/71/142
f 20/15/143 21/14/143 93/181/143 81/187/143
f 81/187/144 93/181/144 94/182/144 82/188/144
f 82/188/145 94/182/145 95/183/145 83/189/145
f 83/189/146 95/183/146 96/72/146 84/70/146
f 6/29/147 7/28/147 89/184/147 65/190/147
f 65/190/148 89/184/148 90/185/148 66/191/148
f 66/191/149 90/185/149 91/186/149 67/192/149
f 67/192/150 91/186/150 92/71/150 68/66/150
f 19/16/151 20/15/151 81/187/151 88/97/151
f 88/97/152 81/187/152 82/188/152 87/99/152
f 87/99/153 82/188/153 83/189/153 86/101/153
f 86/101/154 83/189/154 84/70/154 85/69/154
f 32/3/155 1/2/155 73/139/155 80/103/155
f 80/103/156 73/139/156 74/140/156 79/105/156
f 79/105/157 74/140/157 75/141/157 78/107/157
f 78/107/158 75/141/158 76/68/158 77/67/158
f 5/30/159 6/29/159 65/190/159 72/109/159
f 72/109/160 65/190/160 66/191/160 71/111/160
f 71/111/161 66/191/161 67/192/161 70/113/161
f 70/113/162 67/192/162 68/66/162 69/65/162
